<?xml version="1.0" encoding="UTF-8" standalone="no"?>
<!-- Created with Inkscape (http://www.inkscape.org/) -->

<svg
   version="1.1"
   id="svg2"
   width="601.65332"
   height="682.66669"
   viewBox="0 0 601.65332 682.66669"
   xmlns="http://www.w3.org/2000/svg"
   xmlns:svg="http://www.w3.org/2000/svg">
  <defs
     id="defs6">
    <clipPath
       clipPathUnits="userSpaceOnUse"
       id="clipPath22">
      <path
         d="m 359.199,3263.67 c 0,-552.83 -273.6092,-662.28 -273.6092,-1243.17 0,-175.39 28.0622,-345.17 82.7852,-492.5 16.836,32.27 43.496,71.56 71.559,92.61 -37.887,120.67 -54.723,252.56 -54.723,399.89 0,377.44 256.769,695.95 317.105,1084.61 5.614,49.11 5.614,103.83 5.614,158.56 5.613,443.38 -207.664,816.61 -207.664,816.61 L 92.6055,4178.5 234.32,3855.78 c 70.157,-164.16 124.879,-367.61 124.879,-592.11 z"
         id="path20" />
    </clipPath>
    <linearGradient
       x1="0"
       y1="0"
       x2="1"
       y2="0"
       gradientUnits="userSpaceOnUse"
       gradientTransform="matrix(542.956,0,0,-542.956,46.4749,2853.25)"
       spreadMethod="pad"
       id="linearGradient36">
      <stop
         style="stop-opacity:1;stop-color:#ffffff"
         offset="0"
         id="stop24" />
      <stop
         style="stop-opacity:1;stop-color:#ffffff"
         offset="0.11"
         id="stop26" />
      <stop
         style="stop-opacity:1;stop-color:#dee1e2"
         offset="0.24"
         id="stop28" />
      <stop
         style="stop-opacity:1;stop-color:#a6adb0"
         offset="0.44"
         id="stop30" />
      <stop
         style="stop-opacity:1;stop-color:#90999e"
         offset="0.54"
         id="stop32" />
      <stop
         style="stop-opacity:1;stop-color:#90999e"
         offset="1"
         id="stop34" />
    </linearGradient>
    <clipPath
       clipPathUnits="userSpaceOnUse"
       id="clipPath46">
      <path
         d="m 4001.71,3263.67 c 0,-235.73 92.61,-422.34 181,-635.62 l 115.06,5.61 c -71.56,175.39 -141.72,345.17 -141.72,630.01 0,224.5 54.72,426.55 126.28,592.11 l 141.72,322.72 -213.28,-98.22 c 0,0 -209.06,-373.23 -209.06,-816.61 z"
         id="path44" />
    </clipPath>
    <linearGradient
       x1="0"
       y1="0"
       x2="1"
       y2="0"
       gradientUnits="userSpaceOnUse"
       gradientTransform="matrix(0,1547.38,1547.38,0,4212.88,2628.05)"
       spreadMethod="pad"
       id="linearGradient56">
      <stop
         style="stop-opacity:1;stop-color:#ffffff"
         offset="0"
         id="stop48" />
      <stop
         style="stop-opacity:1;stop-color:#ffffff"
         offset="0.35"
         id="stop50" />
      <stop
         style="stop-opacity:1;stop-color:#90999e"
         offset="0.56"
         id="stop52" />
      <stop
         style="stop-opacity:1;stop-color:#90999e"
         offset="1"
         id="stop54" />
    </linearGradient>
    <clipPath
       clipPathUnits="userSpaceOnUse"
       id="clipPath66">
      <path
         d="m 2090.65,498.109 c -169.77,60.332 -405.5,82.782 -745.05,169.782 -465.842,115.05 -941.502,416.729 -1101.455,952.719 -28.063,-28.06 -54.723,-60.34 -71.559,-92.61 181,-514.94 641.227,-876.949 1133.724,-1007.441 317.1,-82.789 465.84,-87 701.56,-152.938 32.27,-32.269 246.95,-267.9999 246.95,-267.9999 V 324.121 c 0,-1.402 -141.72,157.149 -164.17,173.988 z"
         id="path64" />
    </clipPath>
    <linearGradient
       x1="0"
       y1="0"
       x2="1"
       y2="0"
       gradientUnits="userSpaceOnUse"
       gradientTransform="matrix(2082.24,0,0,-2082.24,172.584,860.11)"
       spreadMethod="pad"
       id="linearGradient84">
      <stop
         style="stop-opacity:1;stop-color:#ffffff"
         offset="0"
         id="stop68" />
      <stop
         style="stop-opacity:1;stop-color:#ffffff"
         offset="0.15"
         id="stop70" />
      <stop
         style="stop-opacity:1;stop-color:#fcfdfd"
         offset="0.21"
         id="stop72" />
      <stop
         style="stop-opacity:1;stop-color:#edeef0"
         offset="0.29"
         id="stop74" />
      <stop
         style="stop-opacity:1;stop-color:#d4d6d7"
         offset="0.37"
         id="stop76" />
      <stop
         style="stop-opacity:1;stop-color:#aeb3b6"
         offset="0.45"
         id="stop78" />
      <stop
         style="stop-opacity:1;stop-color:#90999e"
         offset="0.51"
         id="stop80" />
      <stop
         style="stop-opacity:1;stop-color:#90999e"
         offset="1"
         id="stop82" />
    </linearGradient>
    <clipPath
       clipPathUnits="userSpaceOnUse"
       id="clipPath94">
      <path
         d="m 836.262,3263.67 c 0,256.77 -54.723,477.06 -103.832,618.77 109.445,60.34 252.562,169.78 362.01,356.4 120.66,-65.95 290.44,-137.51 486.88,-137.51 301.67,0 537.4,131.9 673.5,230.12 137.51,-98.22 371.83,-230.12 673.5,-230.12 49.11,0 92.61,5.61 137.51,11.23 L 594.926,2261.84 c 71.558,279.22 241.336,509.33 241.336,1001.83 z m 2940.948,618.77 c -49.11,-141.71 -103.83,-367.61 -103.83,-618.77 0,-103.83 5.61,-202.05 22.45,-284.84 L 1170.2,1083.21 C 853.098,1247.38 578.086,1560.27 562.652,1986.82 L 3465.72,4167.28 c 103.83,-141.72 218.88,-230.11 311.49,-284.84 z M 3946.99,2020.5 c 0,-558.44 -443.39,-926.06 -860.12,-1035.512 -301.67,-77.168 -662.27,-115.047 -777.33,-181 -28.06,-16.84 -54.72,-49.109 -54.72,-49.109 0,0 -32.27,32.269 -54.72,49.109 -109.45,60.332 -477.06,103.832 -777.33,181 -11.23,5.621 -22.45,5.621 -32.27,11.231 L 3746.34,2765.56 c 79.98,-284.84 200.65,-465.84 200.65,-745.06 z M 1383.48,820.832 C 1760.92,728.219 2007.87,717 2172.04,634.211 c 0,0 60.33,-54.719 82.78,-82.781 22.45,28.062 82.78,82.781 82.78,82.781 164.17,82.789 411.12,92.609 788.56,186.621 477.06,120.668 992.01,541.598 992.01,1199.668 0,471.45 -268,646.84 -268,1243.17 0,405.5 152.94,716.99 152.94,716.99 0,0 -350.78,71.56 -514.94,514.95 0,0 -235.73,-218.89 -558.45,-218.89 -405.5,0 -673.5,284.83 -673.5,284.83 0,0 -267.99,-284.83 -673.5,-284.83 -322.72,0 -558.44,218.89 -558.44,218.89 -164.167,-443.39 -514.948,-514.95 -514.948,-514.95 0,0 152.941,-312.89 152.941,-716.99 0,-597.73 -267.996,-771.72 -267.996,-1243.17 -1.402,-662.28 513.543,-1079 989.203,-1199.668 z"
         id="path92" />
    </clipPath>
    <linearGradient
       x1="0"
       y1="0"
       x2="1"
       y2="0"
       gradientUnits="userSpaceOnUse"
       gradientTransform="matrix(-2470.32,3526.99,3526.99,2470.32,3492.37,967.06)"
       spreadMethod="pad"
       id="linearGradient116">
      <stop
         style="stop-opacity:1;stop-color:#90999e"
         offset="0"
         id="stop96" />
      <stop
         style="stop-opacity:1;stop-color:#959da3"
         offset="0.01"
         id="stop98" />
      <stop
         style="stop-opacity:1;stop-color:#c2c6c6"
         offset="0.12"
         id="stop100" />
      <stop
         style="stop-opacity:1;stop-color:#dddfde"
         offset="0.2"
         id="stop102" />
      <stop
         style="stop-opacity:1;stop-color:#e7e8e8"
         offset="0.25"
         id="stop104" />
      <stop
         style="stop-opacity:1;stop-color:#e7e8e8"
         offset="0.75"
         id="stop106" />
      <stop
         style="stop-opacity:1;stop-color:#dee0e0"
         offset="0.8"
         id="stop108" />
      <stop
         style="stop-opacity:1;stop-color:#c7cacc"
         offset="0.87"
         id="stop110" />
      <stop
         style="stop-opacity:1;stop-color:#a1a8ab"
         offset="0.97"
         id="stop112" />
      <stop
         style="stop-opacity:1;stop-color:#90999e"
         offset="1"
         id="stop114" />
    </linearGradient>
    <clipPath
       clipPathUnits="userSpaceOnUse"
       id="clipPath126">
      <path
         d="m 1581.32,4431.07 c 405.5,0 673.5,345.16 673.5,345.16 v 218.89 l -213.28,-207.66 c -109.44,-109.44 -284.83,-197.84 -460.22,-197.84 -131.89,0 -256.77,60.33 -362.01,147.33 l -328.326,273.6 71.559,-256.76 c -5.613,0 305.877,-322.72 618.777,-322.72 z"
         id="path124" />
    </clipPath>
    <linearGradient
       x1="0"
       y1="0"
       x2="1"
       y2="0"
       gradientUnits="userSpaceOnUse"
       gradientTransform="matrix(1366.62,0,0,-1366.62,889.295,4720.81)"
       spreadMethod="pad"
       id="linearGradient144">
      <stop
         style="stop-opacity:1;stop-color:#ffffff"
         offset="0"
         id="stop128" />
      <stop
         style="stop-opacity:1;stop-color:#ffffff"
         offset="0.25"
         id="stop130" />
      <stop
         style="stop-opacity:1;stop-color:#fcfdfd"
         offset="0.34"
         id="stop132" />
      <stop
         style="stop-opacity:1;stop-color:#edeef0"
         offset="0.45"
         id="stop134" />
      <stop
         style="stop-opacity:1;stop-color:#d4d6d7"
         offset="0.57"
         id="stop136" />
      <stop
         style="stop-opacity:1;stop-color:#aeb3b6"
         offset="0.7"
         id="stop138" />
      <stop
         style="stop-opacity:1;stop-color:#90999e"
         offset="0.79"
         id="stop140" />
      <stop
         style="stop-opacity:1;stop-color:#90999e"
         offset="1"
         id="stop142" />
    </linearGradient>
    <clipPath
       clipPathUnits="userSpaceOnUse"
       id="clipPath154">
      <path
         d="m 4320.22,2020.5 c 0,-717 -509.34,-1188.449 -1156.18,-1352.609 -339.55,-87 -575.28,-109.45 -745.06,-169.782 -22.45,-22.449 -164.16,-175.39 -164.16,-175.39 V 98.2188 c 0,0 218.89,235.7222 246.95,268.0002 235.72,65.941 383.05,71.551 701.56,152.941 641.23,164.16 1222.12,722.6 1222.12,1501.34 0,279.22 -60.33,449 -126.28,613.16 l -115.06,-5.61 c 70.16,-175.39 136.11,-366.21 136.11,-607.55 z"
         id="path152" />
    </clipPath>
    <linearGradient
       x1="0"
       y1="0"
       x2="1"
       y2="0"
       gradientUnits="userSpaceOnUse"
       gradientTransform="matrix(2170.63,0,0,-2170.63,2254.82,1365.94)"
       spreadMethod="pad"
       id="linearGradient172">
      <stop
         style="stop-opacity:1;stop-color:#ffffff"
         offset="0"
         id="stop156" />
      <stop
         style="stop-opacity:1;stop-color:#ffffff"
         offset="0.2"
         id="stop158" />
      <stop
         style="stop-opacity:1;stop-color:#fcfdfd"
         offset="0.33"
         id="stop160" />
      <stop
         style="stop-opacity:1;stop-color:#f0f1f1"
         offset="0.47"
         id="stop162" />
      <stop
         style="stop-opacity:1;stop-color:#d9dcdd"
         offset="0.63"
         id="stop164" />
      <stop
         style="stop-opacity:1;stop-color:#b8bcbf"
         offset="0.79"
         id="stop166" />
      <stop
         style="stop-opacity:1;stop-color:#90999e"
         offset="0.93"
         id="stop168" />
      <stop
         style="stop-opacity:1;stop-color:#90999e"
         offset="1"
         id="stop170" />
    </linearGradient>
    <clipPath
       clipPathUnits="userSpaceOnUse"
       id="clipPath182">
      <path
         d="m 2928.32,4431.07 c 312.9,0 624.39,317.1 624.39,317.1 l 71.56,262.38 -328.33,-273.6 c -109.45,-87 -230.11,-147.33 -362.01,-147.33 -175.39,0 -350.78,86.99 -460.22,197.84 l -213.28,207.66 v -214.67 c -5.61,-4.22 262.39,-349.38 667.89,-349.38 z"
         id="path180" />
    </clipPath>
    <linearGradient
       x1="0"
       y1="0"
       x2="1"
       y2="0"
       gradientUnits="userSpaceOnUse"
       gradientTransform="matrix(1366.62,0,0,-1366.62,2255.92,4720.81)"
       spreadMethod="pad"
       id="linearGradient200">
      <stop
         style="stop-opacity:1;stop-color:#ffffff"
         offset="0"
         id="stop184" />
      <stop
         style="stop-opacity:1;stop-color:#ffffff"
         offset="0.25"
         id="stop186" />
      <stop
         style="stop-opacity:1;stop-color:#fcfdfd"
         offset="0.34"
         id="stop188" />
      <stop
         style="stop-opacity:1;stop-color:#edeef0"
         offset="0.45"
         id="stop190" />
      <stop
         style="stop-opacity:1;stop-color:#d4d6d7"
         offset="0.57"
         id="stop192" />
      <stop
         style="stop-opacity:1;stop-color:#aeb3b6"
         offset="0.7"
         id="stop194" />
      <stop
         style="stop-opacity:1;stop-color:#90999e"
         offset="0.79"
         id="stop196" />
      <stop
         style="stop-opacity:1;stop-color:#90999e"
         offset="1"
         id="stop198" />
    </linearGradient>
    <clipPath
       clipPathUnits="userSpaceOnUse"
       id="clipPath210">
      <path
         d="m 956.93,4753.79 -65.946,256.76 -147.328,-405.5 C 677.707,4429.66 573.879,4320.22 426.551,4276.72 L 92.6055,4178.5 300.27,4080.28 c -1.407,0 519.156,43.5 656.66,673.51 z"
         id="path208" />
    </clipPath>
    <linearGradient
       x1="0"
       y1="0"
       x2="1"
       y2="0"
       gradientUnits="userSpaceOnUse"
       gradientTransform="matrix(868.722,0,0,-868.722,89.5887,4545.42)"
       spreadMethod="pad"
       id="linearGradient228">
      <stop
         style="stop-opacity:1;stop-color:#ffffff"
         offset="0"
         id="stop212" />
      <stop
         style="stop-opacity:1;stop-color:#ffffff"
         offset="0.39"
         id="stop214" />
      <stop
         style="stop-opacity:1;stop-color:#fcfdfd"
         offset="0.47"
         id="stop216" />
      <stop
         style="stop-opacity:1;stop-color:#edeef0"
         offset="0.57"
         id="stop218" />
      <stop
         style="stop-opacity:1;stop-color:#d4d6d7"
         offset="0.67"
         id="stop220" />
      <stop
         style="stop-opacity:1;stop-color:#aeb3b6"
         offset="0.79"
         id="stop222" />
      <stop
         style="stop-opacity:1;stop-color:#90999e"
         offset="0.87"
         id="stop224" />
      <stop
         style="stop-opacity:1;stop-color:#90999e"
         offset="1"
         id="stop226" />
    </linearGradient>
  </defs>
  <g
     id="g8"
     transform="matrix(1.3333333,0,0,-1.3333333,0,682.66667)">
    <g
       id="g10"
       transform="scale(0.1)">
      <path
         d="m 4320.22,2020.5 c 0,241.34 -65.95,432.16 -137.51,607.55 -86.99,207.66 -181,399.89 -181,635.62 0,-564.06 268,-728.23 268,-1243.17 0,-569.67 -388.67,-1171.609 -1101.46,-1352.609 642.63,164.16 1151.97,635.609 1151.97,1352.609 z m -4081.689,0 c 0,465.84 218.887,641.23 262.383,1084.61 -60.336,-388.66 -317.105,-701.56 -317.105,-1084.61 0,-147.33 22.449,-279.22 54.722,-399.89 C 397.086,1083.21 879.758,788.559 1339.98,667.891 632.809,848.891 238.531,1450.83 238.531,2020.5"
         style="fill:#ffffff;fill-opacity:1;fill-rule:nonzero;stroke:none"
         id="path12" />
      <path
         d="m 3109.32,2978.83 v 728.22 L 2786.6,3465.72 c 0,0 103.83,-5.62 103.83,-115.06 v -782.94 l 601.94,454.61 c -11.22,152.94 0,246.95 0,246.95 z m -601.94,-86.99 -241.34,-181 v 362 L 1943.33,2831.5 c 0,0 103.83,-5.61 103.83,-115.05 v -782.94 l 218.88,164.16 v 356.39 l 241.34,181.01 V 2273.06 L 2715.04,2426 v 980.79 l -207.66,-158.56 z m -865.73,-909.23 -267.99,416.73 -301.67,-224.5 c 0,0 103.83,-5.61 103.83,-115.05 v -782.95 l 213.27,158.56 v 552.83 l 241.34,-371.83 224.5,169.78 v 973.77 l -213.28,-158.56 z m 2442.84,2294.11 c -147.32,43.5 -252.56,152.94 -317.1,328.33 l -141.72,405.5 -71.56,-256.76 c 141.72,-630.01 656.66,-673.51 656.66,-673.51 l 207.67,98.22 -333.95,98.22"
         style="fill:#e7e7e7;fill-opacity:1;fill-rule:nonzero;stroke:none"
         id="path14" />
      <g
         id="g16">
        <g
           id="g18"
           clip-path="url(#clipPath22)">
          <path
             d="m 359.199,3263.67 c 0,-552.83 -273.6092,-662.28 -273.6092,-1243.17 0,-175.39 28.0622,-345.17 82.7852,-492.5 16.836,32.27 43.496,71.56 71.559,92.61 -37.887,120.67 -54.723,252.56 -54.723,399.89 0,377.44 256.769,695.95 317.105,1084.61 5.614,49.11 5.614,103.83 5.614,158.56 5.613,443.38 -207.664,816.61 -207.664,816.61 L 92.6055,4178.5 234.32,3855.78 c 70.157,-164.16 124.879,-367.61 124.879,-592.11"
             style="fill:url(#linearGradient36);fill-opacity:1;fill-rule:nonzero;stroke:none"
             id="path38" />
        </g>
      </g>
      <g
         id="g40">
        <g
           id="g42"
           clip-path="url(#clipPath46)">
          <path
             d="m 4001.71,3263.67 c 0,-235.73 92.61,-422.34 181,-635.62 l 115.06,5.61 c -71.56,175.39 -141.72,345.17 -141.72,630.01 0,224.5 54.72,426.55 126.28,592.11 l 141.72,322.72 -213.28,-98.22 c 0,0 -209.06,-373.23 -209.06,-816.61"
             style="fill:url(#linearGradient56);fill-opacity:1;fill-rule:nonzero;stroke:none"
             id="path58" />
        </g>
      </g>
      <g
         id="g60">
        <g
           id="g62"
           clip-path="url(#clipPath66)">
          <path
             d="m 2090.65,498.109 c -169.77,60.332 -405.5,82.782 -745.05,169.782 -465.842,115.05 -941.502,416.729 -1101.455,952.719 -28.063,-28.06 -54.723,-60.34 -71.559,-92.61 181,-514.94 641.227,-876.949 1133.724,-1007.441 317.1,-82.789 465.84,-87 701.56,-152.938 32.27,-32.269 246.95,-267.9999 246.95,-267.9999 V 324.121 c 0,-1.402 -141.72,157.149 -164.17,173.988"
             style="fill:url(#linearGradient84);fill-opacity:1;fill-rule:nonzero;stroke:none"
             id="path86" />
        </g>
      </g>
      <g
         id="g88">
        <g
           id="g90"
           clip-path="url(#clipPath94)">
          <path
             d="m 836.262,3263.67 c 0,256.77 -54.723,477.06 -103.832,618.77 109.445,60.34 252.562,169.78 362.01,356.4 120.66,-65.95 290.44,-137.51 486.88,-137.51 301.67,0 537.4,131.9 673.5,230.12 137.51,-98.22 371.83,-230.12 673.5,-230.12 49.11,0 92.61,5.61 137.51,11.23 L 594.926,2261.84 c 71.558,279.22 241.336,509.33 241.336,1001.83 z m 2940.948,618.77 c -49.11,-141.71 -103.83,-367.61 -103.83,-618.77 0,-103.83 5.61,-202.05 22.45,-284.84 L 1170.2,1083.21 C 853.098,1247.38 578.086,1560.27 562.652,1986.82 L 3465.72,4167.28 c 103.83,-141.72 218.88,-230.11 311.49,-284.84 z M 3946.99,2020.5 c 0,-558.44 -443.39,-926.06 -860.12,-1035.512 -301.67,-77.168 -662.27,-115.047 -777.33,-181 -28.06,-16.84 -54.72,-49.109 -54.72,-49.109 0,0 -32.27,32.269 -54.72,49.109 -109.45,60.332 -477.06,103.832 -777.33,181 -11.23,5.621 -22.45,5.621 -32.27,11.231 L 3746.34,2765.56 c 79.98,-284.84 200.65,-465.84 200.65,-745.06 z M 1383.48,820.832 C 1760.92,728.219 2007.87,717 2172.04,634.211 c 0,0 60.33,-54.719 82.78,-82.781 22.45,28.062 82.78,82.781 82.78,82.781 164.17,82.789 411.12,92.609 788.56,186.621 477.06,120.668 992.01,541.598 992.01,1199.668 0,471.45 -268,646.84 -268,1243.17 0,405.5 152.94,716.99 152.94,716.99 0,0 -350.78,71.56 -514.94,514.95 0,0 -235.73,-218.89 -558.45,-218.89 -405.5,0 -673.5,284.83 -673.5,284.83 0,0 -267.99,-284.83 -673.5,-284.83 -322.72,0 -558.44,218.89 -558.44,218.89 -164.167,-443.39 -514.948,-514.95 -514.948,-514.95 0,0 152.941,-312.89 152.941,-716.99 0,-597.73 -267.996,-771.72 -267.996,-1243.17 -1.402,-662.28 513.543,-1079 989.203,-1199.668"
             style="fill:url(#linearGradient116);fill-opacity:1;fill-rule:nonzero;stroke:none"
             id="path118" />
        </g>
      </g>
      <g
         id="g120">
        <g
           id="g122"
           clip-path="url(#clipPath126)">
          <path
             d="m 1581.32,4431.07 c 405.5,0 673.5,345.16 673.5,345.16 v 218.89 l -213.28,-207.66 c -109.44,-109.44 -284.83,-197.84 -460.22,-197.84 -131.89,0 -256.77,60.33 -362.01,147.33 l -328.326,273.6 71.559,-256.76 c -5.613,0 305.877,-322.72 618.777,-322.72"
             style="fill:url(#linearGradient144);fill-opacity:1;fill-rule:nonzero;stroke:none"
             id="path146" />
        </g>
      </g>
      <g
         id="g148">
        <g
           id="g150"
           clip-path="url(#clipPath154)">
          <path
             d="m 4320.22,2020.5 c 0,-717 -509.34,-1188.449 -1156.18,-1352.609 -339.55,-87 -575.28,-109.45 -745.06,-169.782 -22.45,-22.449 -164.16,-175.39 -164.16,-175.39 V 98.2188 c 0,0 218.89,235.7222 246.95,268.0002 235.72,65.941 383.05,71.551 701.56,152.941 641.23,164.16 1222.12,722.6 1222.12,1501.34 0,279.22 -60.33,449 -126.28,613.16 l -115.06,-5.61 c 70.16,-175.39 136.11,-366.21 136.11,-607.55"
             style="fill:url(#linearGradient172);fill-opacity:1;fill-rule:nonzero;stroke:none"
             id="path174" />
        </g>
      </g>
      <g
         id="g176">
        <g
           id="g178"
           clip-path="url(#clipPath182)">
          <path
             d="m 2928.32,4431.07 c 312.9,0 624.39,317.1 624.39,317.1 l 71.56,262.38 -328.33,-273.6 c -109.45,-87 -230.11,-147.33 -362.01,-147.33 -175.39,0 -350.78,86.99 -460.22,197.84 l -213.28,207.66 v -214.67 c -5.61,-4.22 262.39,-349.38 667.89,-349.38"
             style="fill:url(#linearGradient200);fill-opacity:1;fill-rule:nonzero;stroke:none"
             id="path202" />
        </g>
      </g>
      <g
         id="g204">
        <g
           id="g206"
           clip-path="url(#clipPath210)">
          <path
             d="m 956.93,4753.79 -65.946,256.76 -147.328,-405.5 C 677.707,4429.66 573.879,4320.22 426.551,4276.72 L 92.6055,4178.5 300.27,4080.28 c -1.407,0 519.156,43.5 656.66,673.51"
             style="fill:url(#linearGradient228);fill-opacity:1;fill-rule:nonzero;stroke:none"
             id="path230" />
        </g>
      </g>
      <path
         d="m 513.543,3982.07 c 0,0 350.781,71.56 514.947,514.94 0,0 235.72,-218.88 558.44,-218.88 405.5,0 673.5,284.83 673.5,284.83 0,0 268,-284.83 673.5,-284.83 322.72,0 558.44,218.88 558.44,218.88 164.17,-443.38 514.95,-514.94 514.95,-514.94 0,0 -152.94,-312.9 -152.94,-717 0,-597.73 268,-771.72 268,-1243.17 0,-656.66 -514.95,-1079.002 -992.01,-1199.67 -377.44,-92.609 -624.39,-103.832 -788.56,-186.609 0,0 -60.33,-54.73 -82.78,-82.789 -22.45,28.059 -82.79,82.789 -82.79,82.789 -164.16,82.777 -411.11,92.598 -788.55,186.609 -477.065,120.668 -992.01,541.61 -992.01,1199.67 0,471.45 267.996,646.84 267.996,1243.17 -2.805,404.1 -150.133,717 -150.133,717 z M 502.316,3105.11 C 458.82,2661.73 239.934,2486.34 239.934,2020.5 239.934,1450.83 634.211,848.891 1347,667.891 c 339.55,-87 575.28,-109.45 745.06,-169.782 22.45,-22.449 164.16,-175.39 164.16,-175.39 0,0 141.72,152.941 164.17,175.39 169.78,60.332 405.5,82.782 745.06,169.782 716.99,181 1107.06,782.939 1107.06,1352.609 0,520.56 -267.99,679.11 -267.99,1243.17 0,443.38 207.66,816.61 207.66,816.61 0,0 -520.56,43.5 -656.66,673.51 0,0 -312.9,-317.11 -624.39,-317.11 -405.51,0 -673.5,345.17 -673.5,345.17 0,0 -268,-345.17 -673.5,-345.17 -312.9,0 -624.396,317.11 -624.396,317.11 -137.504,-630.01 -656.66,-673.51 -656.66,-673.51 0,0 207.66,-371.82 207.66,-816.61 2.809,-60.34 -2.804,-109.45 -8.418,-158.56 z m 869.934,-707.17 268,-416.73 v 618.78 l 213.28,158.55 v -975.17 l -224.5,-169.78 -241.34,371.83 v -552.83 l -213.28,-158.55 v 784.34 c 0,109.45 -103.83,115.06 -103.83,115.06 z m 893.79,673.5 v -362.01 l 241.34,181.01 v 362 l 207.66,158.55 v -973.76 l -207.66,-164.17 v 356.39 l -241.34,-181 v -356.39 l -218.88,-164.17 v 782.95 c 0,109.44 -103.83,115.05 -103.83,115.05 z m 843.28,635.61 v -722.6 l 383.05,290.44 c 0,0 -11.22,-92.6 0,-246.95 l -601.94,-454.61 v 771.72 c 0,109.44 -103.83,115.05 -103.83,115.05 z M 1170.2,1083.21 3695.83,2978.83 c -11.23,87 -22.45,181.01 -22.45,284.84 0,256.77 54.72,477.06 103.83,618.77 -92.61,54.73 -213.28,137.51 -312.9,279.23 L 561.25,1981.21 c 16.836,-426.55 297.461,-738.04 608.95,-898 z M 425.145,4276.72 c 147.328,43.5 252.562,152.94 317.109,328.33 l 147.324,405.5 328.332,-273.6 c 109.44,-87 230.11,-147.33 362.01,-147.33 175.39,0 350.78,86.99 460.22,197.84 l 213.28,207.66 213.27,-207.66 c 109.44,-109.44 284.83,-197.84 460.23,-197.84 131.89,0 256.77,60.33 362,147.33 l 328.33,273.6 147.33,-405.5 c 65.95,-175.39 169.78,-284.83 317.11,-328.33 l 333.94,-98.22 -141.72,-322.71 c -71.55,-164.17 -126.28,-362.01 -126.28,-592.12 0,-284.84 71.56,-454.62 141.72,-630.01 65.95,-164.16 126.28,-333.94 126.28,-613.16 5.61,-777.33 -575.28,-1337.18 -1216.51,-1501.34 -317.1,-82.789 -465.84,-87 -701.56,-152.941 -32.27,-32.278 -246.95,-268.0002 -246.95,-268.0002 0,0 -218.89,235.7222 -246.95,268.0002 C 1767.94,432.16 1620.61,437.77 1302.1,519.16 809.602,645.441 349.379,1006.04 168.375,1526.6 c -54.723,152.94 -82.7852,317.1 -82.7852,492.5 -5.6132,580.89 267.9962,690.33 267.9962,1243.16 0,224.5 -54.723,426.55 -126.281,592.12 L 85.5898,4177.1 Z M 293.254,3263.67 C 293.254,2731.88 19.6445,2611.21 19.6445,2020.5 19.6445,1171.61 676.305,613.172 1290.87,454.609 1598.16,377.441 1690.76,371.832 1969.99,307.281 1992.44,284.832 2254.82,0 2254.82,0 c 0,0 262.38,279.219 284.83,307.281 279.23,71.559 371.83,71.559 679.12,147.328 C 3831.93,613.16 4490,1171.61 4490,2020.5 c 0,592.12 -273.61,711.38 -273.61,1243.17 0,192.22 37.88,383.05 120.67,564.05 l 175.39,394.28 -405.51,115.06 c -126.28,37.88 -213.27,131.89 -273.61,284.83 l -181,492.5 -405.5,-333.94 c -103.83,-87 -213.28,-131.9 -322.72,-131.9 -141.72,0 -307.28,71.56 -411.12,175.39 l -256.77,256.77 -256.77,-256.77 c -109.44,-109.44 -268,-175.39 -411.11,-175.39 -103.83,0 -213.28,43.5 -322.72,131.9 L 860.113,5120 l -181,-492.5 C 624.391,4474.56 531.785,4374.94 405.504,4342.67 L 0,4216.39 175.391,3822.11 c 74.363,-175.39 117.863,-366.22 117.863,-558.44 z M 1389.09,996.219 c 11.23,-5.61 22.45,-5.61 32.27,-11.231 301.68,-77.168 662.28,-115.047 777.33,-181 28.07,-16.84 54.73,-49.109 54.73,-49.109 0,0 32.27,32.269 54.72,49.109 109.44,60.332 477.06,103.832 777.33,181 416.73,103.832 860.11,471.452 860.11,1035.512 0,279.22 -120.67,460.22 -202.05,745.06 z M 594.926,2261.84 3065.83,4118.17 c -43.5,-5.61 -92.61,-11.23 -137.51,-11.23 -301.67,0 -537.4,131.9 -673.5,230.12 -137.51,-98.22 -371.83,-230.12 -673.5,-230.12 -197.84,0 -367.62,65.95 -486.88,137.51 -109.448,-186.62 -252.565,-296.06 -362.01,-356.39 49.109,-141.72 103.832,-367.62 103.832,-618.78 0,-498.11 -169.778,-728.22 -241.336,-1007.44"
         style="fill:#171514;fill-opacity:1;fill-rule:nonzero;stroke:none"
         id="path232" />
    </g>
  </g>
</svg>
